<mxfile host="65bd71144e">
    <diagram id="hEzunQswsyKDb5-E51Rx" name="Page-1">
        <mxGraphModel dx="1105" dy="583" grid="1" gridSize="10" guides="1" tooltips="1" connect="1" arrows="1" fold="1" page="1" pageScale="1" pageWidth="850" pageHeight="1100" math="0" shadow="0">
            <root>
                <mxCell id="0"/>
                <mxCell id="1" parent="0"/>
                <mxCell id="18" value="#Perro" style="swimlane;fontStyle=1;align=center;verticalAlign=top;childLayout=stackLayout;horizontal=1;startSize=26;horizontalStack=0;resizeParent=1;resizeParentMax=0;resizeLast=0;collapsible=1;marginBottom=0;whiteSpace=wrap;html=1;" parent="1" vertex="1">
                    <mxGeometry x="30" y="130" width="170" height="130" as="geometry">
                        <mxRectangle x="340" y="80" width="100" height="30" as="alternateBounds"/>
                    </mxGeometry>
                </mxCell>
                <mxCell id="19" value="+ nombre: String&lt;div&gt;&lt;span style=&quot;color: rgb(0, 0, 0);&quot;&gt;+ edad: int&lt;/span&gt;&lt;/div&gt;&lt;div&gt;&lt;span style=&quot;color: rgb(0, 0, 0);&quot;&gt;+ color: String&lt;/span&gt;&lt;span style=&quot;color: rgb(0, 0, 0);&quot;&gt;&lt;/span&gt;&lt;/div&gt;" style="text;strokeColor=none;fillColor=none;align=left;verticalAlign=top;spacingLeft=4;spacingRight=4;overflow=hidden;rotatable=0;points=[[0,0.5],[1,0.5]];portConstraint=eastwest;whiteSpace=wrap;html=1;" parent="18" vertex="1">
                    <mxGeometry y="26" width="170" height="54" as="geometry"/>
                </mxCell>
                <mxCell id="20" value="" style="line;strokeWidth=1;fillColor=none;align=left;verticalAlign=middle;spacingTop=-1;spacingLeft=3;spacingRight=3;rotatable=0;labelPosition=right;points=[];portConstraint=eastwest;strokeColor=inherit;" parent="18" vertex="1">
                    <mxGeometry y="80" width="170" height="10" as="geometry"/>
                </mxCell>
                <mxCell id="21" value="+ Ladrar(): void" style="text;strokeColor=none;fillColor=none;align=left;verticalAlign=top;spacingLeft=4;spacingRight=4;overflow=hidden;rotatable=0;points=[[0,0.5],[1,0.5]];portConstraint=eastwest;whiteSpace=wrap;html=1;" parent="18" vertex="1">
                    <mxGeometry y="90" width="170" height="40" as="geometry"/>
                </mxCell>
                <mxCell id="22" value="" style="endArrow=none;dashed=1;html=1;exitX=1;exitY=0.5;exitDx=0;exitDy=0;" parent="1" source="19" edge="1">
                    <mxGeometry width="50" height="50" relative="1" as="geometry">
                        <mxPoint x="420" y="240" as="sourcePoint"/>
                        <mxPoint x="290" y="130" as="targetPoint"/>
                    </mxGeometry>
                </mxCell>
                <mxCell id="23" value="" style="shape=mxgraph.signs.animals.dog_on_leash;html=1;pointerEvents=1;fillColor=#000000;strokeColor=none;verticalLabelPosition=bottom;verticalAlign=top;align=center;" parent="1" vertex="1">
                    <mxGeometry x="300" y="60" width="97" height="91" as="geometry"/>
                </mxCell>
                <mxCell id="24" value="" style="shape=mxgraph.signs.animals.dog_on_leash;html=1;pointerEvents=1;fillColor=#000000;strokeColor=none;verticalLabelPosition=bottom;verticalAlign=top;align=center;" parent="1" vertex="1">
                    <mxGeometry x="290" y="230" width="97" height="91" as="geometry"/>
                </mxCell>
                <mxCell id="25" value="" style="endArrow=none;dashed=1;html=1;exitX=1;exitY=0.5;exitDx=0;exitDy=0;entryX=0.01;entryY=0.35;entryDx=0;entryDy=0;entryPerimeter=0;" parent="1" source="19" target="24" edge="1">
                    <mxGeometry width="50" height="50" relative="1" as="geometry">
                        <mxPoint x="210" y="193" as="sourcePoint"/>
                        <mxPoint x="300" y="140" as="targetPoint"/>
                    </mxGeometry>
                </mxCell>
                <mxCell id="27" value="Filomeno&lt;div&gt;3 a単os&lt;/div&gt;&lt;div&gt;gris&lt;/div&gt;" style="rounded=0;whiteSpace=wrap;html=1;" vertex="1" parent="1">
                    <mxGeometry x="440" y="80" width="120" height="60" as="geometry"/>
                </mxCell>
                <mxCell id="28" value="Thor&lt;br&gt;&lt;div&gt;5 a単os&lt;/div&gt;&lt;div&gt;blanco&lt;/div&gt;" style="rounded=0;whiteSpace=wrap;html=1;" vertex="1" parent="1">
                    <mxGeometry x="425" y="260" width="120" height="60" as="geometry"/>
                </mxCell>
                <mxCell id="29" value="#Perro" style="swimlane;fontStyle=1;align=center;verticalAlign=top;childLayout=stackLayout;horizontal=1;startSize=26;horizontalStack=0;resizeParent=1;resizeParentMax=0;resizeLast=0;collapsible=1;marginBottom=0;whiteSpace=wrap;html=1;" vertex="1" parent="1">
                    <mxGeometry x="40" y="470" width="170" height="130" as="geometry">
                        <mxRectangle x="340" y="80" width="100" height="30" as="alternateBounds"/>
                    </mxGeometry>
                </mxCell>
                <mxCell id="30" value="+ nombre: String&lt;div&gt;&lt;span style=&quot;color: rgb(0, 0, 0);&quot;&gt;+ edad: int&lt;/span&gt;&lt;/div&gt;&lt;div&gt;&lt;span style=&quot;color: rgb(0, 0, 0);&quot;&gt;+ color: String&lt;/span&gt;&lt;span style=&quot;color: rgb(0, 0, 0);&quot;&gt;&lt;/span&gt;&lt;/div&gt;" style="text;strokeColor=none;fillColor=none;align=left;verticalAlign=top;spacingLeft=4;spacingRight=4;overflow=hidden;rotatable=0;points=[[0,0.5],[1,0.5]];portConstraint=eastwest;whiteSpace=wrap;html=1;" vertex="1" parent="29">
                    <mxGeometry y="26" width="170" height="54" as="geometry"/>
                </mxCell>
                <mxCell id="31" value="" style="line;strokeWidth=1;fillColor=none;align=left;verticalAlign=middle;spacingTop=-1;spacingLeft=3;spacingRight=3;rotatable=0;labelPosition=right;points=[];portConstraint=eastwest;strokeColor=inherit;" vertex="1" parent="29">
                    <mxGeometry y="80" width="170" height="10" as="geometry"/>
                </mxCell>
                <mxCell id="32" value="+ Maulla(): void" style="text;strokeColor=none;fillColor=none;align=left;verticalAlign=top;spacingLeft=4;spacingRight=4;overflow=hidden;rotatable=0;points=[[0,0.5],[1,0.5]];portConstraint=eastwest;whiteSpace=wrap;html=1;" vertex="1" parent="29">
                    <mxGeometry y="90" width="170" height="40" as="geometry"/>
                </mxCell>
                <mxCell id="33" value="" style="endArrow=none;dashed=1;html=1;exitX=1;exitY=0.5;exitDx=0;exitDy=0;" edge="1" parent="1" source="30">
                    <mxGeometry width="50" height="50" relative="1" as="geometry">
                        <mxPoint x="430" y="580" as="sourcePoint"/>
                        <mxPoint x="300" y="470" as="targetPoint"/>
                    </mxGeometry>
                </mxCell>
                <mxCell id="36" value="" style="endArrow=none;dashed=1;html=1;exitX=1;exitY=0.5;exitDx=0;exitDy=0;entryX=0.01;entryY=0.35;entryDx=0;entryDy=0;entryPerimeter=0;" edge="1" parent="1" source="30">
                    <mxGeometry width="50" height="50" relative="1" as="geometry">
                        <mxPoint x="220" y="533" as="sourcePoint"/>
                        <mxPoint x="300.97000000000025" y="601.8499999999999" as="targetPoint"/>
                    </mxGeometry>
                </mxCell>
                <mxCell id="37" value="Filomeno&lt;div&gt;3 a単os&lt;/div&gt;&lt;div&gt;gris&lt;/div&gt;" style="rounded=0;whiteSpace=wrap;html=1;" vertex="1" parent="1">
                    <mxGeometry x="450" y="420" width="120" height="60" as="geometry"/>
                </mxCell>
                <mxCell id="38" value="Thor&lt;br&gt;&lt;div&gt;5 a単os&lt;/div&gt;&lt;div&gt;blanco&lt;/div&gt;" style="rounded=0;whiteSpace=wrap;html=1;" vertex="1" parent="1">
                    <mxGeometry x="435" y="600" width="120" height="60" as="geometry"/>
                </mxCell>
                <mxCell id="39" value="" style="verticalLabelPosition=bottom;html=1;verticalAlign=top;align=center;strokeColor=none;fillColor=#00BEF2;shape=mxgraph.azure.github_code;pointerEvents=1;" vertex="1" parent="1">
                    <mxGeometry x="300" y="430" width="50" height="50" as="geometry"/>
                </mxCell>
                <mxCell id="40" value="" style="verticalLabelPosition=bottom;html=1;verticalAlign=top;align=center;strokeColor=none;fillColor=#00BEF2;shape=mxgraph.azure.github_code;pointerEvents=1;" vertex="1" parent="1">
                    <mxGeometry x="300" y="580" width="50" height="50" as="geometry"/>
                </mxCell>
            </root>
        </mxGraphModel>
    </diagram>
</mxfile>